<svg width="137" height="137" viewBox="0 0 137 137" fill="none" xmlns="http://www.w3.org/2000/svg">
<g filter="url(#filter0_d_293_90)">
<rect x="69.1031" y="19.1033" width="55.6912" height="55.6912" rx="16" transform="rotate(28.7752 69.1031 19.1033)" fill="#3377E2"/>
<path d="M95.547 62.4484L91.6029 60.2818C91.3937 60.168 91.1643 60.0963 90.928 60.0708C90.6918 60.0453 90.4533 60.0665 90.2265 60.1332L87.1681 61.065L85.476 53.6769C85.4138 53.4405 85.3035 53.2186 85.1519 53.0251C85.0003 52.8316 84.8107 52.6706 84.5948 52.552C84.3788 52.4333 84.1412 52.3597 83.8966 52.3356C83.652 52.3114 83.4056 52.3373 83.1726 52.4117L79.0382 53.5825L76.5298 52.2046C76.1113 51.9748 75.62 51.9182 75.164 52.0474C74.7079 52.1766 74.3243 52.4809 74.0978 52.8934C73.8712 53.3059 73.8201 53.7928 73.9557 54.247C74.0914 54.7012 74.4026 55.0855 74.8211 55.3153L77.9764 57.0485C78.1833 57.1638 78.4107 57.2376 78.6455 57.2658C78.8802 57.294 79.1177 57.2759 79.3443 57.2128L82.5243 56.2465L84.2163 63.6346C84.2709 63.873 84.374 64.0983 84.5195 64.2966C84.6649 64.4949 84.8495 64.662 85.0617 64.7874C85.2687 64.9026 85.4961 64.9764 85.7308 65.0046C85.9656 65.0328 86.203 65.0148 86.4296 64.9516L90.5726 63.7652L93.8383 65.5591C94.2568 65.7889 94.7481 65.8455 95.2041 65.7163C95.6602 65.5871 96.0438 65.2828 96.2703 64.8703C96.4969 64.4578 96.548 63.9709 96.4124 63.5167C96.2767 63.0625 95.9655 62.6782 95.547 62.4484ZM79.3601 64.2875L74.7393 65.5961C74.5126 65.6613 74.2745 65.6812 74.0389 65.6545C73.8033 65.6279 73.5747 65.5553 73.3665 65.4409C73.1582 65.3265 72.9743 65.1725 72.8254 64.988C72.6766 64.8034 72.5656 64.5918 72.499 64.3655L68.7306 51.7471C68.4824 50.917 68.4009 50.0485 68.4908 49.1911C68.5806 48.3337 68.84 47.5044 69.2542 46.7504C69.6683 45.9964 70.2291 45.3326 70.9045 44.7969C71.5799 44.2612 72.3566 43.8641 73.1903 43.6282C74.8706 43.1553 76.6792 43.365 78.2199 44.2113C79.7606 45.0576 80.9077 46.4716 81.4099 48.1433C81.4765 48.3696 81.5874 48.5812 81.7363 48.7657C81.8852 48.9503 82.0691 49.1042 82.2773 49.2186C82.4856 49.333 82.7141 49.4056 82.9498 49.4323C83.1854 49.4589 83.4234 49.4391 83.6502 49.3738C85.3297 48.9434 87.1194 49.1719 88.6493 50.0123C90.1792 50.8527 91.3321 52.2405 91.8698 53.8888C92.0284 54.4331 92.1205 54.9935 92.144 55.558C92.2027 55.9956 92.4226 56.398 92.7611 56.6873C93.0997 56.9766 93.5329 57.1323 93.9768 57.1242C94.4208 57.1162 94.844 56.9449 95.1645 56.6436C95.485 56.3423 95.6801 55.9324 95.712 55.4932C95.6727 54.6406 95.5307 53.7945 95.289 52.9731C94.6121 50.6573 93.1291 48.6466 91.1057 47.3014C89.0823 45.9562 86.6509 45.3645 84.2473 45.6323C83.4303 43.945 82.1621 42.509 80.5826 41.4826C79.0032 40.4562 77.174 39.8795 75.2968 39.816C73.4197 39.7525 71.5676 40.2047 69.9449 41.1228C68.3223 42.0408 66.9921 43.389 66.1013 45.0185C65.4651 46.1756 65.0683 47.4493 64.934 48.7657C64.7996 50.0821 64.9303 51.415 65.3186 52.6872L69.087 65.3055C69.4945 66.6668 70.4278 67.8184 71.682 68.5073C72.9363 69.1963 74.4088 69.3663 75.7762 68.9799L80.3484 67.6851C80.8023 67.5551 81.1838 67.2515 81.4095 66.8406C81.6352 66.4297 81.6868 65.9449 81.5531 65.4921C81.4129 65.0501 81.1058 64.6775 80.6966 64.4527C80.2875 64.228 79.8083 64.1687 79.3601 64.2875Z" fill="white"/>
</g>
<defs>
<filter id="filter0_d_293_90" x="0.0180206" y="0.826538" width="136.176" height="136.176" filterUnits="userSpaceOnUse" color-interpolation-filters="sRGB">
<feFlood flood-opacity="0" result="BackgroundImageFix"/>
<feColorMatrix in="SourceAlpha" type="matrix" values="0 0 0 0 0 0 0 0 0 0 0 0 0 0 0 0 0 0 127 0" result="hardAlpha"/>
<feOffset dx="-12" dy="12"/>
<feGaussianBlur stdDeviation="18"/>
<feComposite in2="hardAlpha" operator="out"/>
<feColorMatrix type="matrix" values="0 0 0 0 0.2 0 0 0 0 0.466667 0 0 0 0 0.886275 0 0 0 0.15 0"/>
<feBlend mode="normal" in2="BackgroundImageFix" result="effect1_dropShadow_293_90"/>
<feBlend mode="normal" in="SourceGraphic" in2="effect1_dropShadow_293_90" result="shape"/>
</filter>
</defs>
</svg>
